# xmcd
#
# Track frame offsets: 
#        150
#        13647
#        23677
#        32691
#
# Disc length: 572 seconds
#
# Revision: 0
# Processed by: cddbd v1.5.2PL0 Copyright (c) Steve Scherf et al.
# Submitted via: ExactAudioCopy v0.95b4
#
DISCID=21023a04
DTITLE=Mike Berry - A Tribute To Buddy Holly (The Joe Meek EP Collecti
DTITLE=on)
DYEAR=2007
DGENRE=Pop/Rock
TTITLE0=A Tribute To Buddy Holly
TTITLE1=It's Just A Matter Of Time
TTITLE2=My Little Baby
TTITLE3=You'll Do It You'll Fall In Love
EXTD=
EXTT0=
EXTT1=
EXTT2=
EXTT3=
PLAYORDER=
